G04*
G04 #@! TF.GenerationSoftware,Altium Limited,Altium Designer,21.5.1 (32)*
G04*
G04 Layer_Physical_Order=4*
G04 Layer_Color=16711680*
%FSLAX25Y25*%
%MOIN*%
G70*
G04*
G04 #@! TF.SameCoordinates,FF93E5F0-650B-4124-AEF6-32342CE94767*
G04*
G04*
G04 #@! TF.FilePolarity,Positive*
G04*
G01*
G75*
%ADD13C,0.00800*%
%ADD14C,0.01000*%
G04:AMPARAMS|DCode=19|XSize=21.26mil|YSize=22.84mil|CornerRadius=5.32mil|HoleSize=0mil|Usage=FLASHONLY|Rotation=270.000|XOffset=0mil|YOffset=0mil|HoleType=Round|Shape=RoundedRectangle|*
%AMROUNDEDRECTD19*
21,1,0.02126,0.01221,0,0,270.0*
21,1,0.01063,0.02284,0,0,270.0*
1,1,0.01063,-0.00610,-0.00532*
1,1,0.01063,-0.00610,0.00532*
1,1,0.01063,0.00610,0.00532*
1,1,0.01063,0.00610,-0.00532*
%
%ADD19ROUNDEDRECTD19*%
G04:AMPARAMS|DCode=40|XSize=157.48mil|YSize=118.11mil|CornerRadius=29.53mil|HoleSize=0mil|Usage=FLASHONLY|Rotation=244.000|XOffset=0mil|YOffset=0mil|HoleType=Round|Shape=RoundedRectangle|*
%AMROUNDEDRECTD40*
21,1,0.15748,0.05906,0,0,244.0*
21,1,0.09843,0.11811,0,0,244.0*
1,1,0.05906,-0.04811,-0.03129*
1,1,0.05906,-0.00497,0.05718*
1,1,0.05906,0.04811,0.03129*
1,1,0.05906,0.00497,-0.05718*
%
%ADD40ROUNDEDRECTD40*%
G04:AMPARAMS|DCode=41|XSize=157.48mil|YSize=118.11mil|CornerRadius=29.53mil|HoleSize=0mil|Usage=FLASHONLY|Rotation=257.000|XOffset=0mil|YOffset=0mil|HoleType=Round|Shape=RoundedRectangle|*
%AMROUNDEDRECTD41*
21,1,0.15748,0.05906,0,0,257.0*
21,1,0.09843,0.11811,0,0,257.0*
1,1,0.05906,-0.03984,-0.04131*
1,1,0.05906,-0.01770,0.05459*
1,1,0.05906,0.03984,0.04131*
1,1,0.05906,0.01770,-0.05459*
%
%ADD41ROUNDEDRECTD41*%
G04:AMPARAMS|DCode=42|XSize=157.48mil|YSize=118.11mil|CornerRadius=29.53mil|HoleSize=0mil|Usage=FLASHONLY|Rotation=270.000|XOffset=0mil|YOffset=0mil|HoleType=Round|Shape=RoundedRectangle|*
%AMROUNDEDRECTD42*
21,1,0.15748,0.05906,0,0,270.0*
21,1,0.09843,0.11811,0,0,270.0*
1,1,0.05906,-0.02953,-0.04921*
1,1,0.05906,-0.02953,0.04921*
1,1,0.05906,0.02953,0.04921*
1,1,0.05906,0.02953,-0.04921*
%
%ADD42ROUNDEDRECTD42*%
G04:AMPARAMS|DCode=43|XSize=157.48mil|YSize=118.11mil|CornerRadius=29.53mil|HoleSize=0mil|Usage=FLASHONLY|Rotation=283.000|XOffset=0mil|YOffset=0mil|HoleType=Round|Shape=RoundedRectangle|*
%AMROUNDEDRECTD43*
21,1,0.15748,0.05906,0,0,283.0*
21,1,0.09843,0.11811,0,0,283.0*
1,1,0.05906,-0.01770,-0.05459*
1,1,0.05906,-0.03984,0.04131*
1,1,0.05906,0.01770,0.05459*
1,1,0.05906,0.03984,-0.04131*
%
%ADD43ROUNDEDRECTD43*%
G04:AMPARAMS|DCode=44|XSize=157.48mil|YSize=118.11mil|CornerRadius=29.53mil|HoleSize=0mil|Usage=FLASHONLY|Rotation=296.000|XOffset=0mil|YOffset=0mil|HoleType=Round|Shape=RoundedRectangle|*
%AMROUNDEDRECTD44*
21,1,0.15748,0.05906,0,0,296.0*
21,1,0.09843,0.11811,0,0,296.0*
1,1,0.05906,-0.00497,-0.05718*
1,1,0.05906,-0.04811,0.03129*
1,1,0.05906,0.00497,0.05718*
1,1,0.05906,0.04811,-0.03129*
%
%ADD44ROUNDEDRECTD44*%
G04:AMPARAMS|DCode=76|XSize=43.31mil|YSize=82.68mil|CornerRadius=21.65mil|HoleSize=0mil|Usage=FLASHONLY|Rotation=90.000|XOffset=0mil|YOffset=0mil|HoleType=Round|Shape=RoundedRectangle|*
%AMROUNDEDRECTD76*
21,1,0.04331,0.03937,0,0,90.0*
21,1,0.00000,0.08268,0,0,90.0*
1,1,0.04331,0.01968,0.00000*
1,1,0.04331,0.01968,0.00000*
1,1,0.04331,-0.01968,0.00000*
1,1,0.04331,-0.01968,0.00000*
%
%ADD76ROUNDEDRECTD76*%
G04:AMPARAMS|DCode=77|XSize=43.31mil|YSize=102.36mil|CornerRadius=21.65mil|HoleSize=0mil|Usage=FLASHONLY|Rotation=90.000|XOffset=0mil|YOffset=0mil|HoleType=Round|Shape=RoundedRectangle|*
%AMROUNDEDRECTD77*
21,1,0.04331,0.05906,0,0,90.0*
21,1,0.00000,0.10236,0,0,90.0*
1,1,0.04331,0.02953,0.00000*
1,1,0.04331,0.02953,0.00000*
1,1,0.04331,-0.02953,0.00000*
1,1,0.04331,-0.02953,0.00000*
%
%ADD77ROUNDEDRECTD77*%
%ADD86R,0.22441X0.14567*%
%ADD87C,0.04921*%
%ADD88C,0.17500*%
%ADD89C,0.01575*%
%ADD90C,0.00787*%
%ADD91C,0.01200*%
%ADD92C,0.02400*%
%ADD93C,0.01600*%
%ADD94O,0.05512X0.01772*%
G36*
X-10867Y39696D02*
X-10305Y39133D01*
X-10026Y38461D01*
X-10000Y38000D01*
Y38000D01*
X-10000D01*
X-10000Y38000D01*
X-10000Y36500D01*
X-9952Y35520D01*
X-9569Y33597D01*
X-8819Y31786D01*
X-7730Y30156D01*
X-6344Y28770D01*
X-4714Y27681D01*
X-2903Y26930D01*
X-980Y26548D01*
X-0Y26500D01*
X33790Y26500D01*
X33913Y26316D01*
Y25684D01*
X34154Y25101D01*
X34601Y24654D01*
X35184Y24413D01*
X35816D01*
X36399Y24654D01*
X36846Y25101D01*
X37087Y25684D01*
Y26000D01*
X37511Y26500D01*
X49000Y26500D01*
X49398Y26500D01*
X50133Y26196D01*
X50696Y25633D01*
X50974Y24961D01*
X51000Y24500D01*
Y24500D01*
X51000D01*
X51000Y24500D01*
X51000Y21000D01*
X51000Y20702D01*
X50772Y20150D01*
X50350Y19728D01*
X49959Y19566D01*
X49500Y19500D01*
X49500Y19500D01*
Y19500D01*
X49500Y19500D01*
X49110Y19462D01*
X49041Y19433D01*
X48389Y19163D01*
X47837Y18611D01*
X47538Y17890D01*
X47500Y17500D01*
Y-25500D01*
Y-25898D01*
X47196Y-26633D01*
X46633Y-27196D01*
X45898Y-27500D01*
X34999D01*
X34500Y-27499D01*
X34000Y-27499D01*
X31414Y-27500D01*
X31078Y-27500D01*
X30418Y-27369D01*
X29797Y-27112D01*
X29366Y-26824D01*
X29000Y-26500D01*
X29000Y-26500D01*
X29000Y-26500D01*
X28627Y-26163D01*
X27793Y-25605D01*
X26865Y-25221D01*
X25881Y-25025D01*
X25379Y-25000D01*
X25379Y-25000D01*
X25379Y-25000D01*
X-28413Y-25000D01*
Y-24684D01*
X-28654Y-24101D01*
X-29101Y-23654D01*
X-29684Y-23413D01*
X-30316D01*
X-30899Y-23654D01*
X-31346Y-24101D01*
X-31587Y-24684D01*
Y-25000D01*
X-40500D01*
X-40799Y-25000D01*
X-41350Y-24772D01*
X-41772Y-24350D01*
X-42000Y-23798D01*
X-42000Y-23500D01*
Y-17952D01*
X-41500Y-17745D01*
X-41399Y-17846D01*
X-40816Y-18087D01*
X-40184D01*
X-39601Y-17846D01*
X-39154Y-17399D01*
X-38913Y-16816D01*
Y-16184D01*
X-39154Y-15601D01*
X-39255Y-15500D01*
X-39048Y-15000D01*
X-28087D01*
Y-15316D01*
X-27846Y-15899D01*
X-27399Y-16346D01*
X-27238Y-16413D01*
X-27337Y-16913D01*
X-27816D01*
X-28399Y-17154D01*
X-28846Y-17601D01*
X-29087Y-18184D01*
Y-18816D01*
X-28846Y-19399D01*
X-28399Y-19846D01*
X-27816Y-20087D01*
X-27184D01*
X-26601Y-19846D01*
X-26154Y-19399D01*
X-25913Y-18816D01*
Y-18184D01*
X-26154Y-17601D01*
X-26601Y-17154D01*
X-26762Y-17087D01*
X-26663Y-16587D01*
X-26184D01*
X-25601Y-16346D01*
X-25154Y-15899D01*
X-24913Y-15316D01*
Y-15000D01*
X-17527D01*
X-17316Y-15087D01*
X-16684D01*
X-16473Y-15000D01*
X16358D01*
X17338Y-14952D01*
X19261Y-14570D01*
X21072Y-13819D01*
X22702Y-12730D01*
X23429Y-12071D01*
X23429Y-12071D01*
X25500Y-10000D01*
X25725Y-9752D01*
X26097Y-9195D01*
X26353Y-8577D01*
X26484Y-7920D01*
X26500Y-7586D01*
X26500Y-7586D01*
X26500Y4000D01*
X26477Y4473D01*
X26292Y5402D01*
X25930Y6276D01*
X25600Y6769D01*
X25889Y7058D01*
X26130Y7641D01*
Y8273D01*
X25889Y8856D01*
X25442Y9303D01*
X24859Y9544D01*
X24227D01*
X23644Y9303D01*
X23358Y9018D01*
X22793Y9395D01*
X21865Y9780D01*
X20881Y9975D01*
X20379Y10000D01*
X20379Y10000D01*
X20379Y10000D01*
X17223Y10000D01*
Y12979D01*
X17346Y13101D01*
X17587Y13684D01*
Y14316D01*
X17346Y14899D01*
X16899Y15346D01*
X16316Y15587D01*
X15684D01*
X15101Y15346D01*
X14654Y14899D01*
X14413Y14316D01*
Y13684D01*
X14654Y13101D01*
X14776Y12979D01*
Y10000D01*
X9500Y10000D01*
X9263Y9988D01*
X8799Y9896D01*
X8362Y9715D01*
X7968Y9452D01*
X7793Y9293D01*
X7793Y9293D01*
X7793Y9293D01*
X7446Y8946D01*
X3686Y5186D01*
X3580Y5130D01*
X2857Y4536D01*
X2587Y4315D01*
X2208Y4433D01*
X2087Y4525D01*
Y4816D01*
X1846Y5399D01*
X1399Y5846D01*
X816Y6087D01*
X184D01*
X-399Y5846D01*
X-846Y5399D01*
X-1087Y4816D01*
Y4184D01*
X-846Y3601D01*
X-399Y3154D01*
X184Y2913D01*
X475D01*
X682Y2413D01*
X-1462Y269D01*
X-2405Y-362D01*
X-4225Y-1116D01*
X-4614Y-1193D01*
X-4654Y-1097D01*
X-5101Y-650D01*
X-5612Y-438D01*
X-5689Y-397D01*
X-5893Y91D01*
X-5779Y366D01*
Y997D01*
X-6021Y1581D01*
X-6468Y2027D01*
X-7051Y2269D01*
X-7682D01*
X-8266Y2027D01*
X-8712Y1581D01*
X-8954Y997D01*
Y366D01*
X-8712Y-218D01*
X-8266Y-664D01*
X-8073Y-744D01*
X-7873Y-1323D01*
X-7884Y-1361D01*
X-7959Y-1473D01*
X-8442Y-1474D01*
X-8529Y-1344D01*
X-9086Y-971D01*
X-9744Y-840D01*
X-13484D01*
X-14142Y-971D01*
X-14700Y-1344D01*
X-14804Y-1500D01*
X-15699D01*
X-15980Y-1384D01*
Y3793D01*
X-14535D01*
X-14142Y3530D01*
X-13484Y3399D01*
X-9744D01*
X-9086Y3530D01*
X-8529Y3903D01*
X-8156Y4460D01*
X-8151Y4487D01*
X-8019Y4805D01*
X-8000Y5000D01*
Y13000D01*
X-8038Y13390D01*
X-8337Y14111D01*
X-8889Y14663D01*
X-9610Y14962D01*
X-10000Y15000D01*
X-12989D01*
X-13154Y15399D01*
X-13601Y15846D01*
X-14184Y16087D01*
X-14816D01*
X-15399Y15846D01*
X-15846Y15399D01*
X-16011Y15000D01*
X-18898D01*
X-19633Y15304D01*
X-20196Y15867D01*
X-20500Y16602D01*
Y17000D01*
Y38000D01*
X-20500Y38398D01*
X-20196Y39133D01*
X-19633Y39696D01*
X-18898Y40000D01*
X-18500Y40000D01*
X-18500Y40000D01*
X-12000Y40000D01*
X-11602Y40000D01*
X-10867Y39696D01*
D02*
G37*
G36*
X59500Y27000D02*
X59500Y27000D01*
X59500D01*
X59956Y26894D01*
X60066Y26848D01*
X60348Y26566D01*
X60500Y26199D01*
X60500Y26000D01*
Y19999D01*
X59303D01*
X58529Y19897D01*
X57808Y19598D01*
X57188Y19123D01*
X56713Y18503D01*
X56489Y17963D01*
X56032Y17818D01*
X55916Y17829D01*
X55899Y17846D01*
X55316Y18087D01*
X54684D01*
X54101Y17846D01*
X53654Y17399D01*
X53413Y16816D01*
Y16184D01*
X53654Y15601D01*
X54101Y15154D01*
X54684Y14913D01*
X55316D01*
X55899Y15154D01*
X56197Y15452D01*
X56399Y15476D01*
X56713Y15438D01*
X56799Y15401D01*
X57188Y14893D01*
X57808Y14418D01*
X58529Y14119D01*
X59303Y14017D01*
X60500D01*
Y13527D01*
X60413Y13316D01*
Y12684D01*
X60500Y12473D01*
X60500D01*
X60500Y12473D01*
X60500Y-7199D01*
X60348Y-7566D01*
X60066Y-7848D01*
X59699Y-8000D01*
X53000D01*
X52801Y-8000D01*
X52434Y-7848D01*
X52152Y-7566D01*
X52000Y-7199D01*
X52000Y-7000D01*
Y-4011D01*
X52399Y-3846D01*
X52846Y-3399D01*
X53087Y-2816D01*
Y-2184D01*
X52955Y-1864D01*
X52899Y-1346D01*
X53346Y-899D01*
X53587Y-316D01*
Y316D01*
X53346Y899D01*
X52899Y1346D01*
X52316Y1587D01*
X52000D01*
X52000Y5399D01*
Y11500D01*
X52000D01*
X52000Y11500D01*
X52000Y11500D01*
X51962Y11890D01*
X51933Y11958D01*
X51663Y12611D01*
X51111Y13163D01*
X50464Y13431D01*
X50390Y13462D01*
X50000Y13500D01*
X49536Y13569D01*
X49150Y13728D01*
X48728Y14150D01*
X48500Y14702D01*
X48500Y16528D01*
X48500Y17000D01*
D01*
X48580Y17491D01*
X48728Y17850D01*
X49150Y18272D01*
X49702Y18500D01*
X50000D01*
Y18500D01*
X50390Y18538D01*
X51111Y18837D01*
X51663Y19389D01*
X51962Y20110D01*
X52000Y20500D01*
X52000Y26000D01*
X52000Y26000D01*
X52108Y26455D01*
X52153Y26566D01*
X52434Y26847D01*
X52801Y26999D01*
X53000Y27000D01*
X59500Y27000D01*
X59500Y27000D01*
D02*
G37*
G36*
X-67000Y42500D02*
X-39000Y42500D01*
X-38015Y42500D01*
X-37990Y42495D01*
X-37696Y41784D01*
X-37133Y41221D01*
X-36398Y40916D01*
X-35602D01*
X-34867Y41221D01*
X-34591Y41497D01*
X-34263Y41362D01*
X-32625Y40268D01*
X-31233Y38875D01*
X-30138Y37237D01*
X-29384Y35417D01*
X-29000Y33485D01*
X-29000Y32500D01*
X-29000D01*
X-29000Y32500D01*
X-29000Y16500D01*
Y16003D01*
X-29381Y15084D01*
X-30084Y14381D01*
X-31003Y14000D01*
X-31500D01*
Y14000D01*
X-37500D01*
X-37997Y14000D01*
X-38916Y14380D01*
X-39619Y15083D01*
X-40000Y16002D01*
X-40000Y16499D01*
X-40000Y16586D01*
X-40016Y16920D01*
X-40147Y17577D01*
X-40403Y18195D01*
X-40775Y18752D01*
X-41000Y19000D01*
X-41248Y19225D01*
X-41805Y19597D01*
X-42423Y19853D01*
X-42925Y19953D01*
X-42954Y19959D01*
X-42954Y19959D01*
X-43080Y19984D01*
X-43414Y20000D01*
X-43414Y20000D01*
X-43414Y20000D01*
X-43905Y20000D01*
X-54000D01*
X-76500Y28000D01*
X-82500Y31000D01*
X-83000Y33500D01*
X-77500Y44500D01*
X-75000Y46000D01*
X-67000Y42500D01*
D02*
G37*
G36*
X-72805Y25069D02*
X-46677Y11849D01*
X-46133Y11304D01*
X-45398Y11000D01*
X-44702D01*
X-44150Y10772D01*
X-43728Y10350D01*
X-43500Y9798D01*
Y9500D01*
Y6000D01*
Y5702D01*
X-43728Y5150D01*
X-44150Y4728D01*
X-44702Y4500D01*
X-45000D01*
X-76426Y9384D01*
X-87344Y10724D01*
X-88134Y12386D01*
X-84644Y27503D01*
X-82260Y28324D01*
X-72805Y25069D01*
D02*
G37*
G36*
X-76578Y8049D02*
X-45000Y3500D01*
X-44702D01*
X-44150Y3272D01*
X-43728Y2850D01*
X-43500Y2298D01*
Y2000D01*
Y-2000D01*
Y-2298D01*
X-43728Y-2850D01*
X-44150Y-3272D01*
X-44702Y-3500D01*
X-45000D01*
X-76578Y-8049D01*
X-86523Y-9094D01*
X-88661Y-7757D01*
Y7757D01*
X-86523Y9094D01*
X-76578Y8049D01*
D02*
G37*
G36*
X-44150Y-4728D02*
X-43728Y-5150D01*
X-43500Y-5702D01*
Y-6000D01*
Y-9500D01*
Y-9798D01*
X-43728Y-10350D01*
X-44150Y-10772D01*
X-44702Y-11000D01*
X-45000D01*
X-72805Y-25069D01*
X-82260Y-28324D01*
X-84644Y-27503D01*
X-88134Y-12386D01*
X-87344Y-10724D01*
X-76426Y-9384D01*
X-45000Y-4500D01*
X-44702D01*
X-44150Y-4728D01*
D02*
G37*
%LPC*%
G36*
X6816Y21587D02*
X6184D01*
X5601Y21346D01*
X5154Y20899D01*
X4913Y20316D01*
Y19684D01*
X5154Y19101D01*
X5601Y18654D01*
X6184Y18413D01*
X6816D01*
X7399Y18654D01*
X7846Y19101D01*
X8087Y19684D01*
Y20316D01*
X7846Y20899D01*
X7399Y21346D01*
X6816Y21587D01*
D02*
G37*
G36*
X-7184Y20087D02*
X-7816D01*
X-8399Y19846D01*
X-8846Y19399D01*
X-9087Y18816D01*
Y18184D01*
X-8846Y17601D01*
X-8399Y17154D01*
X-7816Y16913D01*
X-7184D01*
X-6601Y17154D01*
X-6154Y17601D01*
X-5913Y18184D01*
Y18816D01*
X-6154Y19399D01*
X-6601Y19846D01*
X-7184Y20087D01*
D02*
G37*
G36*
X43316Y21087D02*
X42684D01*
X42101Y20846D01*
X41654Y20399D01*
X41413Y19816D01*
Y19184D01*
X41469Y19049D01*
X41444Y18974D01*
X41119Y18587D01*
X40684D01*
X40101Y18346D01*
X39654Y17899D01*
X39413Y17316D01*
Y16684D01*
X39654Y16101D01*
X40101Y15654D01*
X40684Y15413D01*
X41316D01*
X41899Y15654D01*
X42346Y16101D01*
X42587Y16684D01*
Y17316D01*
X42531Y17451D01*
X42556Y17526D01*
X42881Y17913D01*
X43316D01*
X43899Y18154D01*
X44346Y18601D01*
X44587Y19184D01*
Y19816D01*
X44346Y20399D01*
X43899Y20846D01*
X43316Y21087D01*
D02*
G37*
G36*
X-2684Y16587D02*
X-3316D01*
X-3899Y16346D01*
X-4346Y15899D01*
X-4587Y15316D01*
Y14684D01*
X-4346Y14101D01*
X-3899Y13654D01*
X-3316Y13413D01*
X-2684D01*
X-2101Y13654D01*
X-1654Y14101D01*
X-1413Y14684D01*
Y15316D01*
X-1654Y15899D01*
X-2101Y16346D01*
X-2684Y16587D01*
D02*
G37*
G36*
X316Y13587D02*
X-316D01*
X-899Y13346D01*
X-1346Y12899D01*
X-1491Y12549D01*
X-1684Y12087D01*
X-2316D01*
X-2899Y11846D01*
X-3346Y11399D01*
X-3587Y10816D01*
Y10184D01*
X-3346Y9601D01*
X-2899Y9154D01*
X-2316Y8913D01*
X-1684D01*
X-1101Y9154D01*
X-654Y9601D01*
X-509Y9951D01*
X-316Y10413D01*
X316D01*
X899Y10654D01*
X1346Y11101D01*
X1587Y11684D01*
Y12316D01*
X1346Y12899D01*
X899Y13346D01*
X316Y13587D01*
D02*
G37*
G36*
X40816Y9587D02*
X40184D01*
X39601Y9346D01*
X39154Y8899D01*
X38913Y8316D01*
Y7684D01*
X39154Y7101D01*
X39601Y6654D01*
X40184Y6413D01*
X40816D01*
X41399Y6654D01*
X41846Y7101D01*
X42087Y7684D01*
Y8316D01*
X41846Y8899D01*
X41399Y9346D01*
X40816Y9587D01*
D02*
G37*
G36*
X-3445Y3515D02*
X-4076D01*
X-4660Y3273D01*
X-5106Y2827D01*
X-5348Y2243D01*
Y1612D01*
X-5106Y1028D01*
X-4660Y582D01*
X-4076Y340D01*
X-3445D01*
X-2861Y582D01*
X-2415Y1028D01*
X-2173Y1612D01*
Y2243D01*
X-2415Y2827D01*
X-2861Y3273D01*
X-3445Y3515D01*
D02*
G37*
G36*
X32816Y1587D02*
X32184D01*
X31601Y1346D01*
X31154Y899D01*
X30913Y316D01*
Y-316D01*
X31154Y-899D01*
X31601Y-1346D01*
X32184Y-1587D01*
X32816D01*
X33399Y-1346D01*
X33846Y-899D01*
X34087Y-316D01*
Y316D01*
X33846Y899D01*
X33399Y1346D01*
X32816Y1587D01*
D02*
G37*
G36*
X40816Y-6413D02*
X40184D01*
X39601Y-6654D01*
X39154Y-7101D01*
X38913Y-7684D01*
Y-8316D01*
X39154Y-8899D01*
X39601Y-9346D01*
X40184Y-9587D01*
X40816D01*
X41399Y-9346D01*
X41846Y-8899D01*
X42087Y-8316D01*
Y-7684D01*
X41846Y-7101D01*
X41399Y-6654D01*
X40816Y-6413D01*
D02*
G37*
G36*
X-21684Y-15913D02*
X-22316D01*
X-22899Y-16154D01*
X-23346Y-16601D01*
X-23587Y-17184D01*
Y-17816D01*
X-23346Y-18399D01*
X-22899Y-18846D01*
X-22316Y-19087D01*
X-21684D01*
X-21101Y-18846D01*
X-20654Y-18399D01*
X-20413Y-17816D01*
Y-17184D01*
X-20654Y-16601D01*
X-21101Y-16154D01*
X-21684Y-15913D01*
D02*
G37*
G36*
X7816Y-17413D02*
X7184D01*
X6601Y-17654D01*
X6154Y-18101D01*
X5913Y-18684D01*
Y-19316D01*
X6154Y-19899D01*
X6601Y-20346D01*
X7184Y-20587D01*
X7816D01*
X8399Y-20346D01*
X8846Y-19899D01*
X9087Y-19316D01*
Y-18684D01*
X8846Y-18101D01*
X8399Y-17654D01*
X7816Y-17413D01*
D02*
G37*
G36*
X35316D02*
X34684D01*
X34101Y-17654D01*
X33654Y-18101D01*
X33413Y-18684D01*
Y-19316D01*
X33654Y-19899D01*
X34101Y-20346D01*
X34684Y-20587D01*
X35316D01*
X35509Y-21048D01*
X35654Y-21399D01*
X36101Y-21846D01*
X36684Y-22087D01*
X37316D01*
X37509Y-22548D01*
X37654Y-22899D01*
X38101Y-23346D01*
X38684Y-23587D01*
X39316D01*
X39509Y-24048D01*
X39654Y-24399D01*
X40101Y-24846D01*
X40684Y-25087D01*
X41316D01*
X41899Y-24846D01*
X42346Y-24399D01*
X42587Y-23816D01*
Y-23184D01*
X42346Y-22601D01*
X41899Y-22154D01*
X41316Y-21913D01*
X40684D01*
X40491Y-21452D01*
X40346Y-21101D01*
X39899Y-20654D01*
X39316Y-20413D01*
X38684D01*
X38491Y-19951D01*
X38346Y-19601D01*
X37899Y-19154D01*
X37316Y-18913D01*
X36684D01*
X36491Y-18451D01*
X36346Y-18101D01*
X35899Y-17654D01*
X35316Y-17413D01*
D02*
G37*
G36*
X56816Y6087D02*
X56184D01*
X55601Y5846D01*
X55154Y5399D01*
X54913Y4816D01*
Y4184D01*
X55154Y3601D01*
X55601Y3154D01*
X56184Y2913D01*
X56816D01*
X57399Y3154D01*
X57846Y3601D01*
X58087Y4184D01*
Y4816D01*
X57846Y5399D01*
X57399Y5846D01*
X56816Y6087D01*
D02*
G37*
G36*
X57316Y-38D02*
X56684D01*
X56101Y-280D01*
X55654Y-726D01*
X55413Y-1309D01*
Y-1941D01*
X55654Y-2524D01*
X56101Y-2971D01*
X56684Y-3213D01*
X57316D01*
X57899Y-2971D01*
X58346Y-2524D01*
X58587Y-1941D01*
Y-1309D01*
X58346Y-726D01*
X57899Y-280D01*
X57316Y-38D01*
D02*
G37*
%LPD*%
D13*
X7500Y500D02*
G03*
X8707Y0I1207J1207D01*
G01*
X7500Y500D02*
G03*
X6293Y1000I-1207J-1207D01*
G01*
X6057Y2559D02*
G03*
X3500Y1500I0J-3616D01*
G01*
X6000Y1000D02*
G03*
X4293Y293I0J-2414D01*
G01*
X-6000Y-4500D02*
G03*
X-3442Y-3442I-0J3621D01*
G01*
X3354Y3354D02*
G03*
X3353Y3353I4259J-4261D01*
G01*
X-3442Y-3442D02*
G03*
X-3439Y-3439I-2558J2563D01*
G01*
X7614Y5118D02*
G03*
X3354Y3354I0J-6025D01*
G01*
X1460Y-2540D02*
G03*
X-1000Y-8479I5939J-5939D01*
G01*
X-4940Y-6940D02*
G03*
X-6000Y-9500I2562J-2560D01*
G01*
X14677Y7677D02*
G03*
X16000Y9000I0J1323D01*
G01*
X7614Y5118D02*
X11614D01*
X6057Y2559D02*
X11614D01*
X8707Y0D02*
X11614D01*
X6000Y1000D02*
X6293D01*
X-4940Y-6940D02*
X3500Y1500D01*
X-3439Y-3439D02*
X3353Y3353D01*
X1460Y-2540D02*
X4293Y293D01*
X-1000Y-9500D02*
Y-8479D01*
X11614Y7677D02*
X14677D01*
X16000Y9000D02*
Y14000D01*
D14*
X-42500Y-12000D02*
G03*
X-43500Y-14414I2414J-2414D01*
G01*
Y-24672D02*
G03*
X-41500Y-29500I6828J0D01*
G01*
X-42207Y-11707D02*
G03*
X-41500Y-10000I-1707J1707D01*
G01*
X-40442Y10058D02*
G03*
X-41500Y7500I2563J-2558D01*
G01*
X-36646Y13854D02*
G03*
X-36083Y15213I-1359J1359D01*
G01*
X-24000Y47642D02*
G03*
X-21071Y40571I10000J0D01*
G01*
X-17764Y5118D02*
X-11614D01*
X-17764Y2461D02*
Y5118D01*
X38500Y26500D02*
Y40500D01*
X15500Y26500D02*
Y61000D01*
X-43500Y-24672D02*
Y-14414D01*
X-42500Y-12000D02*
X-42207Y-11707D01*
X-41500Y-10000D02*
Y7500D01*
X-40442Y10058D02*
X-36646Y13854D01*
X-21071Y40571D02*
X-18500Y38000D01*
X-24000Y47642D02*
Y64000D01*
D19*
X-14965Y0D02*
D03*
X-18035D02*
D03*
D40*
X-74600Y36385D02*
D03*
D41*
X-80873Y18671D02*
D03*
D42*
X-83000Y0D02*
D03*
D43*
X-80873Y-18671D02*
D03*
D44*
X-74600Y-36385D02*
D03*
D76*
X61272Y-17008D02*
D03*
Y17008D02*
D03*
D77*
X82374Y-17008D02*
D03*
Y17008D02*
D03*
D86*
X-28000Y0D02*
D03*
D87*
X-24000Y64000D02*
D03*
X-14000D02*
D03*
X-4000D02*
D03*
X6000D02*
D03*
D88*
X0Y-37402D02*
D03*
Y37402D02*
D03*
D89*
X28000Y22000D02*
D03*
X62000Y-13000D02*
D03*
Y13000D02*
D03*
X67500Y1000D02*
D03*
X56500Y4500D02*
D03*
Y8500D02*
D03*
X6000Y-6500D02*
D03*
Y-4000D02*
D03*
X-3000Y15000D02*
D03*
X-2000Y10500D02*
D03*
X500Y4500D02*
D03*
X-6000Y-4500D02*
D03*
X24500Y-3500D02*
D03*
X35000Y-19000D02*
D03*
X39000Y-22000D02*
D03*
X37000Y-20500D02*
D03*
X-6000Y-9500D02*
D03*
X-1000D02*
D03*
X55000Y16500D02*
D03*
X67500Y3500D02*
D03*
X57000Y-6000D02*
D03*
X57000Y-1625D02*
D03*
X52000Y0D02*
D03*
X57500Y43500D02*
D03*
X43000Y19500D02*
D03*
X41000Y17000D02*
D03*
X29500Y46500D02*
D03*
X31000Y42500D02*
D03*
X20000Y65500D02*
D03*
X-40000Y-13000D02*
D03*
X-41500Y-29500D02*
D03*
X6000Y-1500D02*
D03*
X3500Y-18000D02*
D03*
X-40500Y-20000D02*
D03*
X16000Y14000D02*
D03*
X49500Y21000D02*
D03*
X25000Y-20000D02*
D03*
X-10500Y-23000D02*
D03*
X-17000Y-13500D02*
D03*
X7500Y-19000D02*
D03*
X50000Y-11000D02*
D03*
X41000Y-23500D02*
D03*
X-22000Y-17500D02*
D03*
X-6000Y-1996D02*
D03*
X-7367Y682D02*
D03*
X-3760Y1928D02*
D03*
X-27500Y-18500D02*
D03*
X-26500Y-15000D02*
D03*
X50000Y-4500D02*
D03*
X51500Y-2500D02*
D03*
X-40500Y-16500D02*
D03*
X0Y12000D02*
D03*
X-14500Y14500D02*
D03*
X-7500Y18500D02*
D03*
X6500Y20000D02*
D03*
X41500Y47500D02*
D03*
X50500D02*
D03*
X34500Y52000D02*
D03*
X38500Y40500D02*
D03*
X15500Y61000D02*
D03*
X24543Y7957D02*
D03*
X40500Y8000D02*
D03*
X32500Y0D02*
D03*
X40500Y-8000D02*
D03*
X24500D02*
D03*
X49500Y-30000D02*
D03*
X-34500Y-35000D02*
D03*
X-30000Y-25000D02*
D03*
X11000Y31500D02*
D03*
X13000Y34500D02*
D03*
X15000Y74000D02*
D03*
X35500Y26000D02*
D03*
X15000Y80500D02*
D03*
X68000Y22000D02*
D03*
X62500Y26000D02*
D03*
X23000Y-30500D02*
D03*
D90*
X-17764Y2461D02*
D03*
X-33315D02*
D03*
X-28000D02*
D03*
X-22685D02*
D03*
Y6299D02*
D03*
X-28000D02*
D03*
X-33315D02*
D03*
X-38236Y-2461D02*
D03*
Y2461D02*
D03*
X-33315Y-2461D02*
D03*
X-28000D02*
D03*
X-22685D02*
D03*
X-17764D02*
D03*
X-22685Y-6299D02*
D03*
X-28000D02*
D03*
X-33315D02*
D03*
D91*
X-76326Y32846D02*
D03*
X-72874Y39923D02*
D03*
X-74600Y36385D02*
D03*
X-79864Y34572D02*
D03*
X-76413Y41649D02*
D03*
X-78139Y38111D02*
D03*
X-72787Y31120D02*
D03*
X-69336Y38197D02*
D03*
X-71061Y34659D02*
D03*
X-81758Y14835D02*
D03*
X-79987Y22507D02*
D03*
X-80873Y18671D02*
D03*
X-85594Y15721D02*
D03*
X-83823Y23393D02*
D03*
X-84709Y19557D02*
D03*
X-77922Y13949D02*
D03*
X-76151Y21621D02*
D03*
X-77037Y17785D02*
D03*
X-83000Y-3937D02*
D03*
Y3937D02*
D03*
Y0D02*
D03*
X-86937Y-3937D02*
D03*
Y3937D02*
D03*
Y0D02*
D03*
X-79063Y-3937D02*
D03*
Y3937D02*
D03*
Y0D02*
D03*
X-79987Y-22507D02*
D03*
X-81758Y-14835D02*
D03*
X-80873Y-18671D02*
D03*
X-83823Y-23393D02*
D03*
X-85594Y-15721D02*
D03*
X-84709Y-19557D02*
D03*
X-76151Y-21621D02*
D03*
X-77922Y-13949D02*
D03*
X-77037Y-17785D02*
D03*
X-72874Y-39923D02*
D03*
X-76326Y-32846D02*
D03*
X-74600Y-36385D02*
D03*
X-76413Y-41649D02*
D03*
X-79864Y-34572D02*
D03*
X-78139Y-38111D02*
D03*
X-69336Y-38197D02*
D03*
X-72787Y-31120D02*
D03*
X-71061Y-34659D02*
D03*
D92*
X-45000Y-6000D02*
D03*
Y2000D02*
D03*
Y-2000D02*
D03*
Y6000D02*
D03*
Y9500D02*
D03*
X55000Y25500D02*
D03*
X59000D02*
D03*
X-12000Y38000D02*
D03*
X-37500Y21500D02*
D03*
X-45000Y-9500D02*
D03*
Y13000D02*
D03*
Y16500D02*
D03*
X-53000Y-20500D02*
D03*
X-47500Y-19000D02*
D03*
X-51000Y-16500D02*
D03*
X-48500Y-23500D02*
D03*
X-47500Y-27500D02*
D03*
X-46500Y-31500D02*
D03*
X-65000Y-28000D02*
D03*
X-63000Y-33000D02*
D03*
X-61000Y-38500D02*
D03*
X-50500Y39500D02*
D03*
X-60500Y40000D02*
D03*
X-64000Y31500D02*
D03*
X-37500Y25000D02*
D03*
Y28500D02*
D03*
X-46000Y30500D02*
D03*
X-46500Y36000D02*
D03*
X-62000Y35500D02*
D03*
X-65500Y27000D02*
D03*
X-47500Y26500D02*
D03*
X-48500Y16000D02*
D03*
X-51500Y17500D02*
D03*
X-36000Y42917D02*
D03*
Y32083D02*
D03*
X-18500Y38000D02*
D03*
D93*
X24500Y-3500D02*
G03*
X22228Y-2559I-2272J-2272D01*
G01*
X11614D02*
X22228D01*
D94*
X11614Y7677D02*
D03*
Y5118D02*
D03*
Y2559D02*
D03*
Y0D02*
D03*
Y-2559D02*
D03*
Y-5118D02*
D03*
Y-7677D02*
D03*
X-11614Y7677D02*
D03*
Y5118D02*
D03*
Y2559D02*
D03*
Y0D02*
D03*
Y-2559D02*
D03*
Y-5118D02*
D03*
Y-7677D02*
D03*
M02*
